<svg width="285" height="140" viewBox="0 0 285 140" fill="none" xmlns="http://www.w3.org/2000/svg">
<path d="M89.4636 73.4739C88.8861 74.721 87.3952 75.4367 86.2577 74.7771C85.3932 74.3802 84.569 72.4875 83.8393 71.036C81.9843 67.2768 80.5371 63.271 79.4889 59.1209C78.6735 56.0032 77.8545 52.5488 77.3942 50.5218C77.1405 49.0442 76.5298 47.6949 78.5387 47.7691C86.3137 47.729 96.8886 47.7751 104.588 47.7531C105.609 47.7691 106.631 47.711 107.17 46.5722C109.744 41.2853 114.687 30.4889 117.47 24.5604C118.009 23.4657 118.738 21.7475 119.052 21.4909C119.265 21.2463 119.473 21.1601 119.773 21.126C127.464 21.0398 174.089 21.134 181.99 21.0999C182.423 21.1039 182.877 21.0578 183.107 21.4408C183.299 21.7936 183.317 22.5956 183.324 24.1033C183.327 27.5617 183.324 34.8736 183.324 40.2527C183.327 41.6361 183.32 42.9854 183.324 44.3387C183.394 46.3055 183.177 47.32 184.162 47.6468C187.413 47.9195 191.403 47.6789 196.809 47.7571C198.125 47.7651 199.616 47.7771 200.83 48.1039C204.874 49.0763 203.32 55.1451 202.787 58.4392C202.099 61.6972 200.802 64.7025 199.019 67.4252C198.384 68.4116 197.63 69.4461 196.924 70.3283C195.958 71.5953 194.697 72.7822 193.347 71.8379C191.874 70.9237 190.777 68.7704 191.779 67.0703C192.331 66.0598 193.122 65.2699 193.781 64.2915C194.891 62.7417 195.75 60.7689 196.154 58.8422C196.368 57.7676 196.576 56.6348 196.202 55.6323C195.824 54.7582 194.831 54.692 193.122 54.684C189.587 54.68 185.105 54.684 181.644 54.684C180.176 54.678 178.067 54.7542 177.619 54.2991C177.038 53.872 177.047 52.8295 177.036 50.8867C177.043 45.0645 177.031 36.5517 177.036 31.756C177.033 30.0538 177.036 29.0434 176.866 28.5602C176.665 27.9868 176.154 28.0509 175.647 28.0269C168.537 28.077 131.371 27.9286 124.471 28.075C124.151 28.1331 123.924 28.2614 123.679 28.5682C123.323 29.0133 122.893 29.8874 122.174 31.2949C119.314 36.8985 113.587 48.2022 111.422 52.4305C110.96 53.2525 110.603 54.1567 109.796 54.4715C104.674 55.0148 92.4228 54.5096 86.8807 54.684C84.618 54.6299 84.4465 55.2594 85.0345 58.0322C85.3635 59.584 85.9375 61.7453 86.6532 63.8905C87.3059 65.8653 88.0864 67.8121 88.7444 69.3218C89.4951 71.1142 90.0061 72.0825 89.4794 73.4379L89.4636 73.4739Z" fill="#FEFEFE"/>
<path d="M157.21 8.65356H171.801V18.7803H150.654L157.21 8.65356Z" fill="#FEFEFE"/>
<path d="M145.102 39.0618C145.102 45.0284 141.386 42.2256 135.673 53.1382C131.291 41.572 126.244 45.0284 126.244 39.0618C126.244 33.0952 132.15 29.4584 135.673 35.8981C139.482 29.8954 145.102 33.0972 145.102 39.0618Z" fill="#FEFEFE"/>
<path d="M140.164 85.5555C135.465 85.5555 130.564 82.9592 125.819 80.445C121.639 78.2296 117.316 75.94 113.876 75.94C113.843 75.94 113.81 75.94 113.776 75.94C106.969 76.0282 102.288 78.4461 97.7609 80.7839C89.6394 84.9781 81.9466 88.9498 65.6738 79.9398C64.2126 79.1298 63.6212 77.0969 64.3806 75.4528C65.0981 73.899 66.7606 73.2615 68.1395 74.0274C82.0078 81.7302 87.9699 78.6507 95.4089 74.8093C100.235 72.3172 105.707 69.4923 113.71 69.386C118.456 69.3359 123.42 71.9543 128.22 74.4965C132.403 76.7119 136.723 79.0015 140.164 79.0015C140.232 79.0015 140.302 79.0015 140.37 78.9995C143.979 78.9013 149.122 76.5255 154.097 74.2278C160.356 71.3368 166.824 68.3475 172.008 68.967C178.519 69.7449 182.434 72.0225 185.578 73.8529C191.164 77.1049 194.939 79.3022 212.344 70.0115C213.761 69.2537 215.448 69.9354 216.131 71.5473C216.827 73.1933 216.211 75.1762 214.764 75.946C195.807 86.0427 190.253 83.9235 182.987 79.6952C179.98 77.9449 176.872 76.1365 171.414 75.4849C167.655 75.0378 161.847 77.7144 156.235 80.3067C150.537 82.9391 145.155 85.4232 140.507 85.5515C140.393 85.5535 140.278 85.5555 140.164 85.5555Z" fill="#FEFEFE"/>
<path d="M170.758 39.2645C170.758 45.231 167.043 42.4282 161.329 53.3409C156.947 41.7746 151.9 45.231 151.9 39.2645C151.9 33.2979 157.806 29.661 161.329 36.1007C165.139 30.0981 170.758 33.2999 170.758 39.2645Z" fill="#FEFEFE"/>
<path d="M44.1662 113.875H39.1889C39.098 113.231 38.9124 112.659 38.6321 112.159C38.3518 111.652 37.992 111.22 37.5526 110.864C37.1132 110.508 36.6056 110.235 36.0298 110.045C35.4616 109.856 34.8442 109.761 34.1776 109.761C32.973 109.761 31.9238 110.061 31.0298 110.659C30.1359 111.25 29.4427 112.114 28.9503 113.25C28.4579 114.379 28.2116 115.75 28.2116 117.364C28.2116 119.023 28.4579 120.417 28.9503 121.545C29.4503 122.674 30.1473 123.527 31.0412 124.102C31.9351 124.678 32.9692 124.966 34.1435 124.966C34.8026 124.966 35.4124 124.879 35.973 124.705C36.5412 124.53 37.045 124.277 37.4844 123.943C37.9238 123.602 38.2874 123.189 38.5753 122.705C38.8707 122.22 39.0753 121.667 39.1889 121.045L44.1662 121.068C44.0374 122.136 43.7154 123.167 43.2003 124.159C42.6927 125.144 42.0071 126.027 41.1435 126.807C40.2874 127.58 39.2647 128.193 38.0753 128.648C36.8935 129.095 35.5563 129.318 34.0639 129.318C31.9882 129.318 30.1321 128.848 28.4957 127.909C26.867 126.97 25.5791 125.61 24.6321 123.83C23.6927 122.049 23.223 119.894 23.223 117.364C23.223 114.826 23.7003 112.667 24.6548 110.886C25.6094 109.106 26.9048 107.75 28.5412 106.818C30.1776 105.879 32.0185 105.409 34.0639 105.409C35.4124 105.409 36.6624 105.598 37.8139 105.977C38.973 106.356 39.9995 106.909 40.8935 107.636C41.7874 108.356 42.5147 109.239 43.0753 110.284C43.6435 111.33 44.0071 112.527 44.1662 113.875ZM55.0099 129V111.545H59.7031V114.591H59.8849C60.2031 113.508 60.7372 112.689 61.4872 112.136C62.2372 111.576 63.1009 111.295 64.0781 111.295C64.3205 111.295 64.5819 111.311 64.8622 111.341C65.1425 111.371 65.3887 111.413 65.6009 111.466V115.761C65.3736 115.693 65.0592 115.633 64.6577 115.58C64.2562 115.527 63.8887 115.5 63.5554 115.5C62.8433 115.5 62.2069 115.655 61.6463 115.966C61.0933 116.269 60.6539 116.693 60.3281 117.239C60.0099 117.784 59.8509 118.413 59.8509 119.125V129H55.0099ZM83.4645 129.341C81.669 129.341 80.1236 128.977 78.8281 128.25C77.5402 127.515 76.5478 126.477 75.8509 125.136C75.1539 123.788 74.8054 122.193 74.8054 120.352C74.8054 118.557 75.1539 116.981 75.8509 115.625C76.5478 114.269 77.5289 113.212 78.794 112.455C80.0668 111.697 81.5592 111.318 83.2713 111.318C84.4228 111.318 85.4948 111.504 86.4872 111.875C87.4872 112.239 88.3584 112.788 89.1009 113.523C89.8509 114.258 90.4342 115.182 90.8509 116.295C91.2675 117.402 91.4759 118.697 91.4759 120.182V121.511H76.7372V118.511H86.919C86.919 117.814 86.7675 117.197 86.4645 116.659C86.1615 116.121 85.741 115.701 85.2031 115.398C84.6728 115.087 84.0554 114.932 83.3509 114.932C82.616 114.932 81.9645 115.102 81.3963 115.443C80.8357 115.777 80.3963 116.227 80.0781 116.795C79.7599 117.356 79.5971 117.981 79.5895 118.67V121.523C79.5895 122.386 79.7486 123.133 80.0668 123.761C80.3925 124.39 80.8509 124.875 81.4418 125.216C82.0327 125.557 82.7334 125.727 83.544 125.727C84.0819 125.727 84.5743 125.652 85.0213 125.5C85.4683 125.348 85.8509 125.121 86.169 124.818C86.4872 124.515 86.7296 124.144 86.8963 123.705L91.3736 124C91.1463 125.076 90.6804 126.015 89.9759 126.818C89.2789 127.614 88.3774 128.235 87.2713 128.682C86.1728 129.121 84.9039 129.341 83.4645 129.341ZM105.484 129L100.734 111.545H105.632L108.337 123.273H108.496L111.314 111.545H116.121L118.984 123.205H119.132L121.791 111.545H126.678L121.939 129H116.814L113.814 118.023H113.598L110.598 129H105.484ZM136.757 105.727H142.825L149.234 121.364H149.507L155.916 105.727H161.984V129H157.212V113.852H157.018L150.996 128.886H147.746L141.723 113.795H141.53V129H136.757V105.727ZM178.331 129.33C177.217 129.33 176.225 129.136 175.354 128.75C174.482 128.356 173.793 127.777 173.286 127.011C172.786 126.239 172.536 125.277 172.536 124.125C172.536 123.155 172.714 122.341 173.07 121.682C173.426 121.023 173.911 120.492 174.524 120.091C175.138 119.689 175.835 119.386 176.615 119.182C177.403 118.977 178.229 118.833 179.092 118.75C180.107 118.644 180.926 118.545 181.547 118.455C182.168 118.356 182.619 118.212 182.899 118.023C183.179 117.833 183.32 117.553 183.32 117.182V117.114C183.32 116.394 183.092 115.837 182.638 115.443C182.191 115.049 181.554 114.852 180.729 114.852C179.857 114.852 179.164 115.045 178.649 115.432C178.134 115.811 177.793 116.288 177.626 116.864L173.149 116.5C173.376 115.439 173.823 114.523 174.49 113.75C175.157 112.97 176.017 112.371 177.07 111.955C178.13 111.53 179.357 111.318 180.751 111.318C181.721 111.318 182.649 111.432 183.536 111.659C184.429 111.886 185.221 112.239 185.911 112.716C186.607 113.193 187.157 113.807 187.558 114.557C187.96 115.299 188.161 116.189 188.161 117.227V129H183.57V126.58H183.433C183.153 127.125 182.778 127.606 182.308 128.023C181.839 128.432 181.274 128.754 180.615 128.989C179.956 129.216 179.195 129.33 178.331 129.33ZM179.717 125.989C180.429 125.989 181.058 125.848 181.604 125.568C182.149 125.28 182.577 124.894 182.888 124.409C183.198 123.924 183.354 123.375 183.354 122.761V120.909C183.202 121.008 182.994 121.098 182.729 121.182C182.471 121.258 182.179 121.33 181.854 121.398C181.528 121.458 181.202 121.515 180.876 121.568C180.551 121.614 180.255 121.655 179.99 121.693C179.422 121.777 178.926 121.909 178.501 122.091C178.077 122.273 177.748 122.519 177.513 122.83C177.278 123.133 177.161 123.511 177.161 123.966C177.161 124.625 177.399 125.129 177.876 125.477C178.361 125.818 178.975 125.989 179.717 125.989ZM208.607 111.545V115.182H198.095V111.545H208.607ZM200.482 107.364H205.322V123.636C205.322 124.083 205.391 124.432 205.527 124.682C205.663 124.924 205.853 125.095 206.095 125.193C206.345 125.292 206.633 125.341 206.959 125.341C207.186 125.341 207.413 125.322 207.641 125.284C207.868 125.239 208.042 125.205 208.163 125.182L208.925 128.784C208.682 128.86 208.341 128.947 207.902 129.045C207.463 129.152 206.929 129.216 206.3 129.239C205.133 129.284 204.11 129.129 203.232 128.773C202.36 128.417 201.682 127.864 201.197 127.114C200.713 126.364 200.474 125.417 200.482 124.273V107.364ZM227.053 129.341C225.265 129.341 223.727 128.962 222.439 128.205C221.159 127.439 220.174 126.379 219.484 125.023C218.803 123.667 218.462 122.106 218.462 120.341C218.462 118.553 218.806 116.985 219.496 115.636C220.193 114.28 221.181 113.223 222.462 112.466C223.742 111.701 225.265 111.318 227.03 111.318C228.553 111.318 229.886 111.595 231.03 112.148C232.174 112.701 233.079 113.477 233.746 114.477C234.412 115.477 234.78 116.652 234.848 118H230.28C230.151 117.129 229.81 116.428 229.257 115.898C228.712 115.36 227.996 115.091 227.109 115.091C226.359 115.091 225.704 115.295 225.143 115.705C224.59 116.106 224.159 116.693 223.848 117.466C223.537 118.239 223.382 119.174 223.382 120.273C223.382 121.386 223.534 122.333 223.837 123.114C224.147 123.894 224.583 124.489 225.143 124.898C225.704 125.307 226.359 125.511 227.109 125.511C227.662 125.511 228.159 125.398 228.598 125.17C229.045 124.943 229.412 124.614 229.7 124.182C229.996 123.742 230.189 123.216 230.28 122.602H234.848C234.772 123.936 234.409 125.11 233.757 126.125C233.113 127.133 232.223 127.92 231.087 128.489C229.95 129.057 228.606 129.341 227.053 129.341ZM250.195 118.909V129H245.354V105.727H250.058V114.625H250.263C250.657 113.595 251.293 112.788 252.172 112.205C253.051 111.614 254.153 111.318 255.479 111.318C256.691 111.318 257.748 111.583 258.649 112.114C259.558 112.636 260.263 113.39 260.763 114.375C261.27 115.352 261.52 116.523 261.513 117.886V129H256.672V118.75C256.679 117.674 256.407 116.837 255.854 116.239C255.308 115.64 254.543 115.341 253.558 115.341C252.899 115.341 252.316 115.481 251.808 115.761C251.308 116.042 250.914 116.451 250.626 116.989C250.346 117.519 250.202 118.159 250.195 118.909Z" fill="#FEFEFE"/>
</svg>
