<svg width="285" height="140" viewBox="0 0 285 140" fill="none" xmlns="http://www.w3.org/2000/svg">
<path d="M89.4636 73.4739C88.8861 74.721 87.3952 75.4367 86.2577 74.7771C85.3932 74.3802 84.569 72.4875 83.8393 71.036C81.9843 67.2768 80.5371 63.271 79.4889 59.1209C78.6735 56.0032 77.8545 52.5488 77.3942 50.5218C77.1405 49.0442 76.5298 47.6949 78.5387 47.7691C86.3137 47.729 96.8886 47.7751 104.588 47.7531C105.609 47.7691 106.631 47.711 107.17 46.5722C109.744 41.2853 114.687 30.4889 117.47 24.5604C118.009 23.4657 118.738 21.7475 119.052 21.4909C119.265 21.2463 119.473 21.1601 119.773 21.126C127.464 21.0398 174.089 21.134 181.99 21.0999C182.423 21.1039 182.877 21.0578 183.107 21.4408C183.299 21.7936 183.317 22.5956 183.324 24.1033C183.327 27.5617 183.324 34.8736 183.324 40.2527C183.327 41.6361 183.32 42.9854 183.324 44.3387C183.394 46.3055 183.177 47.32 184.162 47.6468C187.413 47.9195 191.403 47.6789 196.809 47.7571C198.125 47.7651 199.616 47.7771 200.83 48.1039C204.874 49.0763 203.32 55.1451 202.787 58.4392C202.099 61.6972 200.802 64.7025 199.019 67.4252C198.384 68.4116 197.63 69.4461 196.924 70.3283C195.958 71.5953 194.697 72.7822 193.347 71.8379C191.874 70.9237 190.777 68.7704 191.779 67.0703C192.331 66.0598 193.122 65.2699 193.781 64.2915C194.891 62.7417 195.75 60.7689 196.154 58.8422C196.368 57.7676 196.576 56.6348 196.202 55.6323C195.824 54.7582 194.831 54.692 193.122 54.684C189.587 54.68 185.105 54.684 181.644 54.684C180.176 54.678 178.067 54.7542 177.619 54.2991C177.038 53.872 177.047 52.8295 177.036 50.8867C177.043 45.0645 177.031 36.5517 177.036 31.756C177.033 30.0538 177.036 29.0434 176.866 28.5602C176.665 27.9868 176.154 28.0509 175.647 28.0269C168.537 28.077 131.371 27.9286 124.471 28.075C124.151 28.1331 123.924 28.2614 123.679 28.5682C123.323 29.0133 122.893 29.8874 122.174 31.2949C119.314 36.8985 113.587 48.2022 111.422 52.4305C110.96 53.2525 110.603 54.1567 109.796 54.4715C104.674 55.0148 92.4228 54.5096 86.8807 54.684C84.618 54.6299 84.4465 55.2594 85.0345 58.0322C85.3635 59.584 85.9375 61.7453 86.6532 63.8905C87.3059 65.8653 88.0864 67.8121 88.7444 69.3218C89.4951 71.1142 90.0061 72.0825 89.4794 73.4379L89.4636 73.4739Z" fill="url(#paint0_linear_142_2030)"/>
<path d="M157.21 8.65356H171.801V18.7803H150.654L157.21 8.65356Z" fill="url(#paint1_linear_142_2030)"/>
<path d="M145.102 39.0618C145.102 45.0284 141.386 42.2256 135.673 53.1382C131.291 41.572 126.244 45.0284 126.244 39.0618C126.244 33.0952 132.15 29.4584 135.673 35.8981C139.482 29.8954 145.102 33.0972 145.102 39.0618Z" fill="url(#paint2_linear_142_2030)"/>
<path d="M140.164 85.5555C135.465 85.5555 130.564 82.9592 125.819 80.445C121.639 78.2296 117.316 75.94 113.876 75.94C113.843 75.94 113.81 75.94 113.776 75.94C106.969 76.0282 102.288 78.4461 97.7609 80.7839C89.6394 84.9781 81.9466 88.9498 65.6738 79.9398C64.2126 79.1298 63.6212 77.0969 64.3806 75.4528C65.0981 73.899 66.7606 73.2615 68.1395 74.0274C82.0078 81.7302 87.9699 78.6507 95.4089 74.8093C100.235 72.3172 105.707 69.4923 113.71 69.386C118.456 69.3359 123.42 71.9543 128.22 74.4965C132.403 76.7119 136.723 79.0015 140.164 79.0015C140.232 79.0015 140.302 79.0015 140.37 78.9995C143.979 78.9013 149.122 76.5255 154.097 74.2278C160.356 71.3368 166.824 68.3475 172.008 68.967C178.519 69.7449 182.434 72.0225 185.578 73.8529C191.164 77.1049 194.939 79.3022 212.344 70.0115C213.761 69.2537 215.448 69.9354 216.131 71.5473C216.827 73.1933 216.211 75.1762 214.764 75.946C195.807 86.0427 190.253 83.9235 182.987 79.6952C179.98 77.9449 176.872 76.1365 171.414 75.4849C167.655 75.0378 161.847 77.7144 156.235 80.3067C150.537 82.9391 145.155 85.4232 140.507 85.5515C140.393 85.5535 140.278 85.5555 140.164 85.5555Z" fill="url(#paint3_linear_142_2030)"/>
<path d="M170.758 39.2645C170.758 45.231 167.043 42.4282 161.329 53.3409C156.947 41.7746 151.9 45.231 151.9 39.2645C151.9 33.2979 157.806 29.661 161.329 36.1007C165.139 30.0981 170.758 33.2999 170.758 39.2645Z" fill="url(#paint4_linear_142_2030)"/>
<path d="M40.6861 113H37.8679C37.7012 112.189 37.4096 111.477 36.9929 110.864C36.5838 110.25 36.0838 109.735 35.4929 109.318C34.9096 108.894 34.2618 108.576 33.5497 108.364C32.8376 108.152 32.0952 108.045 31.3224 108.045C29.9134 108.045 28.6368 108.402 27.4929 109.114C26.3565 109.826 25.4512 110.875 24.777 112.261C24.1103 113.648 23.777 115.348 23.777 117.364C23.777 119.379 24.1103 121.08 24.777 122.466C25.4512 123.852 26.3565 124.902 27.4929 125.614C28.6368 126.326 29.9134 126.682 31.3224 126.682C32.0952 126.682 32.8376 126.576 33.5497 126.364C34.2618 126.152 34.9096 125.837 35.4929 125.42C36.0838 124.996 36.5838 124.477 36.9929 123.864C37.4096 123.242 37.7012 122.53 37.8679 121.727H40.6861C40.474 122.917 40.0876 123.981 39.527 124.92C38.9664 125.86 38.2694 126.659 37.4361 127.318C36.6027 127.97 35.6671 128.466 34.6293 128.807C33.599 129.148 32.4967 129.318 31.3224 129.318C29.3376 129.318 27.5724 128.833 26.027 127.864C24.4815 126.894 23.2656 125.515 22.3793 123.727C21.4929 121.939 21.0497 119.818 21.0497 117.364C21.0497 114.909 21.4929 112.788 22.3793 111C23.2656 109.212 24.4815 107.833 26.027 106.864C27.5724 105.894 29.3376 105.409 31.3224 105.409C32.4967 105.409 33.599 105.58 34.6293 105.92C35.6671 106.261 36.6027 106.761 37.4361 107.42C38.2694 108.072 38.9664 108.867 39.527 109.807C40.0876 110.739 40.474 111.803 40.6861 113ZM53.8764 129V111.545H56.4673V114.182H56.6491C56.9673 113.318 57.5431 112.617 58.3764 112.08C59.2098 111.542 60.1491 111.273 61.1946 111.273C61.3916 111.273 61.6378 111.277 61.9332 111.284C62.2287 111.292 62.4522 111.303 62.6037 111.318V114.045C62.5128 114.023 62.3045 113.989 61.9787 113.943C61.6605 113.89 61.3234 113.864 60.9673 113.864C60.1188 113.864 59.3613 114.042 58.6946 114.398C58.0355 114.746 57.5128 115.231 57.1264 115.852C56.7476 116.466 56.5582 117.167 56.5582 117.955V129H53.8764ZM82.1009 129.364C80.419 129.364 78.9683 128.992 77.7486 128.25C76.5365 127.5 75.6009 126.455 74.9418 125.114C74.2902 123.765 73.9645 122.197 73.9645 120.409C73.9645 118.621 74.2902 117.045 74.9418 115.682C75.6009 114.311 76.5175 113.242 77.6918 112.477C78.8736 111.705 80.2524 111.318 81.8281 111.318C82.7372 111.318 83.6349 111.47 84.5213 111.773C85.4077 112.076 86.2145 112.568 86.9418 113.25C87.669 113.924 88.2486 114.818 88.6804 115.932C89.1122 117.045 89.3281 118.417 89.3281 120.045V121.182H75.8736V118.864H86.6009C86.6009 117.879 86.4039 117 86.0099 116.227C85.6236 115.455 85.0705 114.845 84.3509 114.398C83.6387 113.951 82.7978 113.727 81.8281 113.727C80.7599 113.727 79.8357 113.992 79.0554 114.523C78.2827 115.045 77.688 115.727 77.2713 116.568C76.8546 117.409 76.6463 118.311 76.6463 119.273V120.818C76.6463 122.136 76.8736 123.254 77.3281 124.17C77.7902 125.08 78.4304 125.773 79.2486 126.25C80.0668 126.72 81.0175 126.955 82.1009 126.955C82.8054 126.955 83.4418 126.856 84.0099 126.659C84.5857 126.455 85.0819 126.152 85.4986 125.75C85.9152 125.341 86.2372 124.833 86.4645 124.227L89.0554 124.955C88.7827 125.833 88.3243 126.606 87.6804 127.273C87.0365 127.932 86.241 128.447 85.294 128.818C84.3471 129.182 83.2827 129.364 82.1009 129.364ZM106.362 129L101.044 111.545H103.862L107.635 124.909H107.817L111.544 111.545H114.408L118.089 124.864H118.271L122.044 111.545H124.862L119.544 129H116.908L113.089 115.591H112.817L108.999 129H106.362ZM137.771 105.727H141.135L149.044 125.045H149.317L157.226 105.727H160.589V129H157.953V111.318H157.726L150.453 129H147.908L140.635 111.318H140.408V129H137.771V105.727ZM180.013 129.409C178.907 129.409 177.903 129.201 177.001 128.784C176.1 128.36 175.384 127.75 174.854 126.955C174.323 126.152 174.058 125.182 174.058 124.045C174.058 123.045 174.255 122.235 174.649 121.614C175.043 120.985 175.57 120.492 176.229 120.136C176.888 119.78 177.615 119.515 178.411 119.341C179.214 119.159 180.02 119.015 180.831 118.909C181.892 118.773 182.751 118.67 183.411 118.602C184.077 118.527 184.562 118.402 184.865 118.227C185.176 118.053 185.331 117.75 185.331 117.318V117.227C185.331 116.106 185.024 115.235 184.411 114.614C183.804 113.992 182.884 113.682 181.649 113.682C180.369 113.682 179.365 113.962 178.638 114.523C177.911 115.083 177.399 115.682 177.104 116.318L174.558 115.409C175.013 114.348 175.619 113.523 176.376 112.932C177.142 112.333 177.975 111.917 178.876 111.682C179.786 111.439 180.679 111.318 181.558 111.318C182.119 111.318 182.763 111.386 183.49 111.523C184.225 111.652 184.933 111.92 185.615 112.33C186.304 112.739 186.876 113.356 187.331 114.182C187.786 115.008 188.013 116.114 188.013 117.5V129H185.331V126.636H185.195C185.013 127.015 184.71 127.42 184.286 127.852C183.861 128.284 183.297 128.652 182.592 128.955C181.888 129.258 181.028 129.409 180.013 129.409ZM180.422 127C181.482 127 182.376 126.792 183.104 126.375C183.839 125.958 184.392 125.42 184.763 124.761C185.142 124.102 185.331 123.409 185.331 122.682V120.227C185.217 120.364 184.967 120.489 184.581 120.602C184.202 120.708 183.763 120.803 183.263 120.886C182.77 120.962 182.289 121.03 181.82 121.091C181.357 121.144 180.982 121.189 180.695 121.227C179.998 121.318 179.346 121.466 178.74 121.67C178.142 121.867 177.657 122.167 177.286 122.568C176.922 122.962 176.74 123.5 176.74 124.182C176.74 125.114 177.085 125.818 177.774 126.295C178.471 126.765 179.354 127 180.422 127ZM209.499 111.545V113.818H200.453V111.545H209.499ZM203.089 107.364H205.771V124C205.771 124.758 205.881 125.326 206.101 125.705C206.328 126.076 206.616 126.326 206.964 126.455C207.321 126.576 207.696 126.636 208.089 126.636C208.385 126.636 208.627 126.621 208.817 126.591C209.006 126.553 209.158 126.523 209.271 126.5L209.817 128.909C209.635 128.977 209.381 129.045 209.055 129.114C208.73 129.189 208.317 129.227 207.817 129.227C207.059 129.227 206.317 129.064 205.589 128.739C204.87 128.413 204.271 127.917 203.794 127.25C203.324 126.583 203.089 125.742 203.089 124.727V107.364ZM229.624 129.364C227.987 129.364 226.578 128.977 225.396 128.205C224.214 127.432 223.305 126.367 222.669 125.011C222.033 123.655 221.714 122.106 221.714 120.364C221.714 118.591 222.04 117.027 222.692 115.67C223.351 114.307 224.268 113.242 225.442 112.477C226.624 111.705 228.002 111.318 229.578 111.318C230.805 111.318 231.911 111.545 232.896 112C233.881 112.455 234.688 113.091 235.317 113.909C235.946 114.727 236.336 115.682 236.487 116.773H233.805C233.601 115.977 233.146 115.273 232.442 114.659C231.745 114.038 230.805 113.727 229.624 113.727C228.578 113.727 227.661 114 226.874 114.545C226.093 115.083 225.483 115.845 225.044 116.83C224.612 117.807 224.396 118.955 224.396 120.273C224.396 121.621 224.608 122.795 225.033 123.795C225.464 124.795 226.071 125.572 226.851 126.125C227.639 126.678 228.563 126.955 229.624 126.955C230.321 126.955 230.953 126.833 231.521 126.591C232.089 126.348 232.571 126 232.964 125.545C233.358 125.091 233.639 124.545 233.805 123.909H236.487C236.336 124.939 235.961 125.867 235.362 126.693C234.771 127.511 233.987 128.163 233.01 128.648C232.04 129.125 230.911 129.364 229.624 129.364ZM252.089 118.5V129H249.408V105.727H252.089V114.273H252.317C252.726 113.371 253.339 112.655 254.158 112.125C254.983 111.587 256.082 111.318 257.453 111.318C258.643 111.318 259.684 111.557 260.578 112.034C261.472 112.504 262.165 113.227 262.658 114.205C263.158 115.174 263.408 116.409 263.408 117.909V129H260.726V118.091C260.726 116.705 260.366 115.633 259.646 114.875C258.934 114.11 257.946 113.727 256.68 113.727C255.802 113.727 255.014 113.913 254.317 114.284C253.627 114.655 253.082 115.197 252.68 115.909C252.286 116.621 252.089 117.485 252.089 118.5Z" fill="#D30579"/>
<defs>
<linearGradient id="paint0_linear_142_2030" x1="63.5901" y1="53.4162" x2="189.093" y2="55.3074" gradientUnits="userSpaceOnUse">
<stop offset="0.432692" stop-color="#D30579"/>
<stop offset="1" stop-color="#FAB558"/>
</linearGradient>
<linearGradient id="paint1_linear_142_2030" x1="148.394" y1="14.7229" x2="169.387" y2="15.0048" gradientUnits="userSpaceOnUse">
<stop offset="0.432692" stop-color="#D30579"/>
<stop offset="1" stop-color="#FAB558"/>
</linearGradient>
<linearGradient id="paint2_linear_142_2030" x1="124.228" y1="44.8676" x2="142.952" y2="44.9776" gradientUnits="userSpaceOnUse">
<stop offset="0.432692" stop-color="#D30579"/>
<stop offset="1" stop-color="#FAB558"/>
</linearGradient>
<linearGradient id="paint3_linear_142_2030" x1="47.7597" y1="78.8762" x2="198.534" y2="87.736" gradientUnits="userSpaceOnUse">
<stop offset="0.432692" stop-color="#D30579"/>
<stop offset="1" stop-color="#FAB558"/>
</linearGradient>
<linearGradient id="paint4_linear_142_2030" x1="149.884" y1="45.0702" x2="168.608" y2="45.1802" gradientUnits="userSpaceOnUse">
<stop offset="0.432692" stop-color="#D30579"/>
<stop offset="1" stop-color="#FAB558"/>
</linearGradient>
</defs>
</svg>
