<svg width="159" height="170" viewBox="0 0 159 170" fill="none" xmlns="http://www.w3.org/2000/svg">
<path d="M152 80.5C152 119.436 120.436 151 81.5 151C42.5639 151 11 119.436 11 80.5C11 41.5639 42.5639 10 81.5 10C120.436 10 152 41.5639 152 80.5Z" fill="url(#paint0_linear_457_918)"/>
<path d="M82 79C88.6275 79 94 73.6274 94 67C94 60.3726 88.6275 55 82 55C75.3726 55 70 60.3726 70 67C70 73.6274 75.3726 79 82 79Z" fill="white"/>
<path d="M82 83C72.0635 83.0111 64.0111 91.0635 64 101C64 102.105 64.8955 103 66 103H98C99.1045 103 100 102.105 100 101C99.989 91.0635 91.9366 83.011 82 83Z" fill="white"/>
<path d="M159 16.5C159 20.6421 155.642 24 151.5 24C147.358 24 144 20.6421 144 16.5C144 12.3579 147.358 9 151.5 9C155.642 9 159 12.3579 159 16.5Z" fill="#FA1A98"/>
<path d="M66 165.5C66 167.985 63.9853 170 61.5 170C59.0147 170 57 167.985 57 165.5C57 163.015 59.0147 161 61.5 161C63.9853 161 66 163.015 66 165.5Z" fill="#FB51B0"/>
<path d="M29 15C29 19.9706 24.9706 24 20 24C15.0294 24 11 19.9706 11 15C11 10.0294 15.0294 6 20 6C24.9706 6 29 10.0294 29 15Z" fill="#D30579"/>
<path d="M151 144C151 145.657 149.657 147 148 147C146.343 147 145 145.657 145 144C145 142.343 146.343 141 148 141C149.657 141 151 142.343 151 144Z" fill="#FA1A98"/>
<path d="M157 105.5C157 106.881 155.881 108 154.5 108C153.119 108 152 106.881 152 105.5C152 104.119 153.119 103 154.5 103C155.881 103 157 104.119 157 105.5Z" fill="#FC8CCB"/>
<path d="M18 142.5C18 144.985 15.9853 147 13.5 147C11.0147 147 9 144.985 9 142.5C9 140.015 11.0147 138 13.5 138C15.9853 138 18 140.015 18 142.5Z" fill="#FB51B0"/>
<path d="M118 152.5C118 153.328 117.328 154 116.5 154C115.672 154 115 153.328 115 152.5C115 151.672 115.672 151 116.5 151C117.328 151 118 151.672 118 152.5Z" fill="#D30579"/>
<path d="M113 3C113 4.65685 111.657 6 110 6C108.343 6 107 4.65685 107 3C107 1.34315 108.343 0 110 0C111.657 0 113 1.34315 113 3Z" fill="#FB51B0"/>
<path d="M4 86C4 87.1046 3.10457 88 2 88C0.89543 88 0 87.1046 0 86C0 84.8954 0.89543 84 2 84C3.10457 84 4 84.8954 4 86Z" fill="#D30579"/>
<defs>
<linearGradient id="paint0_linear_457_918" x1="-112.089" y1="-83.5345" x2="239.831" y2="-76.6149" gradientUnits="userSpaceOnUse">
<stop stop-color="#D30579"/>
<stop offset="1" stop-color="#FAB558"/>
</linearGradient>
</defs>
</svg>
