<svg width="52" height="52" viewBox="0 0 52 52" fill="none" xmlns="http://www.w3.org/2000/svg">
<rect x="0.5" y="0.5" width="51" height="51" rx="14.5" fill="white" stroke="#E8E6EA"/>
<path d="M26 18.75C26.6904 18.75 27.25 19.3096 27.25 20C27.25 20.6904 26.6904 21.25 26 21.25C25.3096 21.25 24.75 20.6904 24.75 20C24.75 19.3096 25.3096 18.75 26 18.75Z" fill="black" stroke="black" stroke-width="0.5"/>
<path d="M26 24.75C26.6904 24.75 27.25 25.3096 27.25 26C27.25 26.6904 26.6904 27.25 26 27.25C25.3096 27.25 24.75 26.6904 24.75 26C24.75 25.3096 25.3096 24.75 26 24.75Z" fill="black" stroke="black" stroke-width="0.5"/>
<path d="M26 30.25C26.6904 30.25 27.25 30.8096 27.25 31.5C27.25 32.1904 26.6904 32.75 26 32.75C25.3096 32.75 24.75 32.1904 24.75 31.5C24.75 30.8096 25.3096 30.25 26 30.25Z" fill="black" stroke="black" stroke-width="0.5"/>
</svg>
