<svg width="24" height="25" viewBox="0 0 24 25" fill="none" xmlns="http://www.w3.org/2000/svg">
<path d="M22 11L12.8825 3.32207C12.6355 3.11407 12.3229 3 12 3C11.6771 3 11.3645 3.11407 11.1175 3.32207L2 11" stroke="#1E1E1E" stroke-width="1.5" stroke-linecap="round" stroke-linejoin="round"/>
<path d="M20.5 10V16.5C20.5 18.8456 20.5 20.0184 19.8801 20.8263C19.7205 21.0343 19.5343 21.2205 19.3263 21.3801C18.5184 22 17.3456 22 15 22V17.5C15 16.0858 15 15.3787 14.5607 14.9393C14.1213 14.5 13.4142 14.5 12 14.5C10.5858 14.5 9.87868 14.5 9.43934 14.9393C9 15.3787 9 16.0858 9 17.5V22C6.65442 22 5.48164 22 4.67372 21.3801C4.46572 21.2205 4.27954 21.0343 4.11994 20.8263C3.5 20.0184 3.5 18.8456 3.5 16.5V10" stroke="#1E1E1E" stroke-width="1.5" stroke-linecap="round" stroke-linejoin="round"/>
</svg>
