<svg width="250" height="143" viewBox="0 0 250 143" fill="none" xmlns="http://www.w3.org/2000/svg">
<path d="M71.9636 73.4739C71.3861 74.721 69.8952 75.4367 68.7577 74.7771C67.8932 74.3802 67.069 72.4875 66.3393 71.036C64.4843 67.2768 63.0371 63.271 61.9889 59.1209C61.1735 56.0032 60.3545 52.5488 59.8942 50.5218C59.6405 49.0442 59.0298 47.6949 61.0387 47.7691C68.8137 47.729 79.3886 47.7751 87.0884 47.7531C88.1086 47.7691 89.1306 47.711 89.6696 46.5722C92.2437 41.2853 97.1873 30.4889 99.9698 24.5604C100.509 23.4657 101.238 21.7475 101.552 21.4909C101.765 21.2463 101.973 21.1601 102.273 21.126C109.964 21.0398 156.589 21.134 164.49 21.0999C164.923 21.1039 165.377 21.0578 165.607 21.4408C165.799 21.7936 165.817 22.5956 165.824 24.1033C165.827 27.5617 165.824 34.8736 165.824 40.2527C165.827 41.6361 165.82 42.9854 165.824 44.3387C165.894 46.3055 165.677 47.32 166.662 47.6468C169.913 47.9195 173.903 47.6789 179.309 47.7571C180.625 47.7651 182.116 47.7771 183.33 48.1039C187.374 49.0763 185.82 55.1451 185.287 58.4392C184.599 61.6972 183.302 64.7025 181.519 67.4252C180.884 68.4116 180.13 69.4461 179.424 70.3283C178.458 71.5953 177.197 72.7822 175.847 71.8379C174.374 70.9237 173.277 68.7704 174.279 67.0703C174.831 66.0598 175.622 65.2699 176.281 64.2915C177.391 62.7417 178.25 60.7689 178.654 58.8422C178.868 57.7676 179.076 56.6348 178.702 55.6323C178.324 54.7582 177.331 54.692 175.622 54.684C172.087 54.68 167.605 54.684 164.144 54.684C162.676 54.678 160.567 54.7542 160.119 54.2991C159.538 53.872 159.547 52.8295 159.536 50.8867C159.543 45.0645 159.531 36.5517 159.536 31.756C159.533 30.0538 159.536 29.0434 159.366 28.5602C159.165 27.9868 158.654 28.0509 158.147 28.0269C151.037 28.077 113.871 27.9286 106.971 28.075C106.651 28.1331 106.424 28.2614 106.179 28.5682C105.823 29.0133 105.393 29.8874 104.674 31.2949C101.814 36.8985 96.0866 48.2022 93.9219 52.4305C93.46 53.2525 93.103 54.1567 92.2962 54.4715C87.1741 55.0148 74.9228 54.5096 69.3807 54.684C67.118 54.6299 66.9465 55.2594 67.5345 58.0322C67.8635 59.584 68.4375 61.7453 69.1532 63.8905C69.8059 65.8653 70.5864 67.8121 71.2444 69.3218C71.9951 71.1142 72.5061 72.0825 71.9794 73.4379L71.9636 73.4739Z" fill="white"/>
<path d="M139.71 8.65356H154.301V18.7803H133.154L139.71 8.65356Z" fill="white"/>
<path d="M127.602 39.0618C127.602 45.0284 123.886 42.2256 118.173 53.1382C113.791 41.572 108.744 45.0284 108.744 39.0618C108.744 33.0952 114.65 29.4584 118.173 35.8981C121.982 29.8954 127.602 33.0972 127.602 39.0618Z" fill="white"/>
<path d="M122.664 85.5555C117.965 85.5555 113.064 82.9592 108.319 80.445C104.139 78.2296 99.8165 75.94 96.3761 75.94C96.3429 75.94 96.3096 75.94 96.2764 75.94C89.4691 76.0282 84.788 78.4461 80.2609 80.7839C72.1394 84.9781 64.4466 88.9498 48.1738 79.9398C46.7126 79.1298 46.1212 77.0969 46.8806 75.4528C47.5981 73.899 49.2606 73.2615 50.6395 74.0274C64.5078 81.7302 70.4699 78.6507 77.9089 74.8093C82.7353 72.3172 88.2074 69.4923 96.2099 69.386C100.956 69.3359 105.92 71.9543 110.72 74.4965C114.903 76.7119 119.223 79.0015 122.664 79.0015C122.732 79.0015 122.802 79.0015 122.87 78.9995C126.479 78.9013 131.622 76.5255 136.597 74.2278C142.856 71.3368 149.324 68.3475 154.508 68.967C161.019 69.7449 164.934 72.0225 168.078 73.8529C173.664 77.1049 177.439 79.3022 194.844 70.0115C196.261 69.2537 197.948 69.9354 198.631 71.5473C199.327 73.1933 198.711 75.1762 197.264 75.946C178.307 86.0427 172.753 83.9235 165.487 79.6952C162.48 77.9449 159.372 76.1365 153.914 75.4849C150.155 75.0378 144.347 77.7144 138.735 80.3067C133.037 82.9391 127.655 85.4232 123.007 85.5515C122.893 85.5535 122.778 85.5555 122.664 85.5555Z" fill="white"/>
<path d="M153.258 39.2645C153.258 45.231 149.543 42.4282 143.829 53.3409C139.447 41.7746 134.4 45.231 134.4 39.2645C134.4 33.2979 140.306 29.661 143.829 36.1007C147.639 30.0981 153.258 33.2999 153.258 39.2645Z" fill="white"/>
<path d="M21.7729 98.73C12.8029 105.906 6.50095 120.58 7.46695 130.148C7.60495 131.114 8.38695 135.254 9.90495 135.116C10.6869 135.024 11.9289 133.828 12.3889 133.276C15.4709 129.734 17.7249 125.686 19.0129 121.316C19.5649 119.476 20.6229 116.486 23.0149 116.256C24.3489 116.118 25.4069 116.716 25.5449 117.912C26.0969 123.248 16.9889 138.52 10.3649 139.21C5.48895 139.716 3.18895 134.518 2.82095 130.884C2.68295 129.918 2.68295 128.86 2.77495 127.848C3.51095 115.842 7.92695 105.768 16.2069 96.292C18.3229 93.854 21.9109 90.818 25.4989 90.45C29.6849 90.036 32.6289 92.612 33.0429 96.292C33.4109 99.834 30.3289 109.08 25.7749 109.586C24.6249 109.678 23.5669 109.172 23.4289 108.068C23.2909 106.826 26.0049 101.398 25.6829 98.178C25.4529 95.234 23.3829 97.442 21.7729 98.73ZM36.8232 111.104C37.6972 109.908 38.4792 108.206 40.1812 107.976C42.9412 107.7 44.2292 111.518 44.5052 113.404C44.5972 114.278 43.8612 114.922 42.9872 115.06C41.6532 115.198 40.9172 114.232 40.1812 113.312C39.6752 112.3 38.5712 112.576 37.5132 113.956C33.7412 118.786 33.8792 124.996 31.6252 131.62C31.3492 132.494 30.3832 133.138 29.3252 133.23C27.8072 133.414 26.5652 132.494 26.3812 131.114C26.1052 129.136 31.4872 111.104 32.4532 109.402C32.7752 108.758 33.4192 108.298 34.2932 108.206C36.2712 107.976 36.6392 109.678 36.8232 111.104ZM50.4424 122.466C50.3964 122.696 50.3044 122.972 50.3044 123.202C50.3044 124.03 50.3964 124.904 51.4084 124.904C56.2844 124.904 62.1724 118.648 63.0464 118.648C63.9204 118.648 64.9324 119.476 64.9324 120.396C64.9324 124.582 54.9964 130.24 50.9484 130.24C47.2224 130.24 44.5084 127.572 44.5084 123.846C44.5084 116.302 51.9144 105.584 60.0564 105.584C62.8624 105.584 64.6104 107.332 64.6104 110.138C64.6104 115.796 56.1004 123.248 50.4424 122.466ZM56.2844 115.704C58.4004 114.278 60.3324 112.346 60.3324 110.598C60.3324 109.31 58.9064 110.184 58.3084 110.506C56.7444 111.334 55.4564 112.484 54.3984 113.864C51.8224 117.314 51.9144 118.556 56.2844 115.704ZM71.44 125.41C73.74 123.156 77.788 118.142 79.582 115.428C79.904 114.968 80.18 114.6 80.64 114.278C81.008 114.002 81.422 113.864 81.882 113.864C82.94 113.864 83.906 114.692 83.906 115.75C83.906 116.302 83.538 117.682 82.894 119.292C78.524 130.056 85.7 129.872 91.312 121.5C94.578 116.624 94.532 110.138 94.532 107.654C94.532 106.274 93.612 105.768 93.612 104.664C93.612 103.192 94.9 102.364 96.234 102.364C99.73 102.364 100.466 106.366 100.466 109.08C100.466 117.59 95.36 125.41 88.69 130.332C87.126 131.482 84.826 132.586 82.848 132.586C77.972 132.586 77.144 128.262 76.638 124.49C74.568 126.33 70.704 131.712 67.99 131.712C66.288 131.712 65.138 130.24 65.138 128.584C65.138 124.766 72.544 106.412 76.684 106.412C77.65 106.412 78.662 107.286 78.662 108.298C78.662 108.666 72.13 123.386 71.44 125.41ZM134.939 119.246L135.353 119.338C140.965 111.058 146.715 103.1 153.247 95.51C155.087 93.394 156.697 90.726 158.675 88.794C159.411 88.058 160.377 87.598 161.435 87.598C163.183 87.598 164.839 88.978 164.839 90.772C164.839 92.52 160.699 99.834 159.733 102.088C156.145 110.368 151.959 123.386 151.959 132.494C151.959 133.966 153.293 134.518 153.293 135.806C153.293 137.278 151.821 138.566 150.395 138.566C145.749 138.566 145.335 130.7 145.335 127.296C145.335 121.822 146.761 116.67 148.141 111.38C145.151 114.646 138.435 126.836 134.387 126.836C128.867 126.836 129.005 112.714 128.729 108.85L128.315 109.218C126.245 114.416 119.391 132.724 119.391 137.508C119.391 138.52 120.449 138.658 120.449 139.578C120.449 140.728 117.965 142.384 116.861 142.384C114.607 142.384 114.193 139.946 114.193 138.198C114.193 129.366 124.635 99.19 129.143 92.29C129.741 91.37 130.707 90.68 131.857 90.68C134.019 90.68 135.077 92.382 135.077 94.36C135.077 100.846 134.571 107.378 134.571 113.864C134.571 115.658 134.801 117.452 134.939 119.246ZM179.418 108.666C180.43 107.654 181.35 106.09 182.96 106.09C184.018 106.09 184.892 106.918 184.892 107.976C184.892 109.264 177.854 119.568 177.854 125.594C177.854 127.112 179.096 127.342 179.096 128.63C179.096 129.642 178.176 130.378 177.21 130.378C173.622 130.378 173.53 125.594 173.3 123.156C170.724 125.732 166.124 130.976 162.352 130.976C159.086 130.976 157.568 128.216 157.568 125.272C157.568 117.59 165.986 106.09 174.128 106.09C176.244 106.09 178.084 107.102 179.418 108.666ZM173.806 111.748C169.942 111.748 166.216 116.762 164.33 121.27C162.076 126.468 163.364 126.468 167.32 122.972C170.862 119.844 175.048 115.52 175.048 113.036C175.048 111.794 174.864 111.748 173.806 111.748ZM191.354 132.632L191.308 133.598C192.274 133.966 193.608 134.426 193.562 135.622C193.516 136.91 191.538 138.06 190.204 138.06C185.972 138.06 186.018 132.218 186.11 129.55C186.202 126.606 186.754 123.708 187.122 120.718C186.386 120.902 185.144 121.316 184.408 121.316C183.304 121.316 182.292 120.534 182.338 119.522C182.43 117.59 186.248 116.762 187.95 116.44C189.238 113.266 194.85 97.212 199.588 97.212C201.014 97.212 202.256 97.994 202.21 99.328C202.21 99.374 196.276 112.898 195.586 114.83L195.632 115.106C196.552 115.152 197.518 115.06 198.484 115.06C199.542 115.06 200.37 115.428 200.324 116.486C200.278 118.142 195.678 118.556 194.252 118.832C192.78 123.34 191.492 127.94 191.354 132.632ZM201.793 123.938C201.793 115.014 210.671 101.03 220.791 101.03C224.103 101.03 226.955 103.1 226.955 106.596C226.955 109.356 223.781 116.026 220.515 116.026C219.779 116.026 219.089 115.382 219.089 114.6C219.089 113.634 221.849 110.644 221.849 107.056C221.849 106.412 221.205 106.366 220.745 106.366C214.167 106.366 207.175 118.602 207.175 124.214C207.175 125.962 207.451 128.814 209.797 128.814C215.087 128.814 219.871 120.626 222.033 120.626C223.229 120.626 224.103 121.684 224.103 122.788C224.103 127.066 213.983 133.368 209.797 133.368C204.415 133.368 201.793 128.676 201.793 123.938ZM233.547 115.198C235.433 113.542 237.641 111.472 240.309 111.472C243.161 111.472 244.357 113.68 244.357 116.256C244.357 120.074 241.965 124.03 241.965 127.756C241.965 128.952 243.253 129.044 243.253 130.148C243.253 131.252 241.919 132.034 240.953 132.034C238.285 132.034 237.595 128.584 237.595 126.56C237.595 124.398 238.193 122.19 238.791 119.982C239.895 115.75 239.389 114.784 236.077 118.648C233.179 122.052 231.155 127.25 230.005 130.654C229.729 131.528 229.177 132.356 228.119 132.356C225.589 132.356 225.681 127.94 225.681 126.054L225.727 124.858C226.417 117.452 228.625 110.414 232.213 103.928C233.271 101.996 236.675 97.35 239.021 97.35C240.171 97.35 241.321 98.27 241.321 99.466C241.321 100.11 240.953 100.662 240.585 101.122C237.181 105.4 235.157 110 233.547 115.198Z" fill="white"/>
</svg>
