<svg width="24" height="24" viewBox="0 0 24 24" fill="none" xmlns="http://www.w3.org/2000/svg">
<path d="M5.818 22C5.29975 22 4.86737 21.8267 4.52087 21.4802C4.17437 21.1338 4.00075 20.701 4 20.182V5.818C4 5.29975 4.17362 4.86737 4.52087 4.52087C4.86812 4.17437 5.3005 4.00075 5.818 4H13.0214V5.125H5.818C5.64475 5.125 5.48575 5.197 5.341 5.341C5.19625 5.485 5.12425 5.644 5.125 5.818V20.1831C5.125 20.3556 5.197 20.5142 5.341 20.659C5.485 20.8038 5.64362 20.8757 5.81687 20.875H13.0214V22H5.818ZM18.0197 16.9814L17.23 16.1714L19.8389 13.5625H9.841V12.4375H19.8389L17.2289 9.8275L18.0186 9.01975L22 13L18.0197 16.9814Z" fill="#4A4A4A"/>
</svg>
