<svg width="285" height="140" viewBox="0 0 285 140" fill="none" xmlns="http://www.w3.org/2000/svg">
<path d="M89.4636 73.4739C88.8861 74.721 87.3952 75.4367 86.2577 74.7771C85.3932 74.3802 84.569 72.4875 83.8393 71.036C81.9843 67.2768 80.5371 63.271 79.4889 59.1209C78.6735 56.0032 77.8545 52.5488 77.3942 50.5218C77.1405 49.0442 76.5298 47.6949 78.5387 47.7691C86.3137 47.729 96.8886 47.7751 104.588 47.7531C105.609 47.7691 106.631 47.711 107.17 46.5722C109.744 41.2853 114.687 30.4889 117.47 24.5604C118.009 23.4657 118.738 21.7475 119.052 21.4909C119.265 21.2463 119.473 21.1601 119.773 21.126C127.464 21.0398 174.089 21.134 181.99 21.0999C182.423 21.1039 182.877 21.0578 183.107 21.4408C183.299 21.7936 183.317 22.5956 183.324 24.1033C183.327 27.5617 183.324 34.8736 183.324 40.2527C183.327 41.6361 183.32 42.9854 183.324 44.3387C183.394 46.3055 183.177 47.32 184.162 47.6468C187.413 47.9195 191.403 47.6789 196.809 47.7571C198.125 47.7651 199.616 47.7771 200.83 48.1039C204.874 49.0763 203.32 55.1451 202.787 58.4392C202.099 61.6972 200.802 64.7025 199.019 67.4252C198.384 68.4116 197.63 69.4461 196.924 70.3283C195.958 71.5953 194.697 72.7822 193.347 71.8379C191.874 70.9237 190.777 68.7704 191.779 67.0703C192.331 66.0598 193.122 65.2699 193.781 64.2915C194.891 62.7417 195.75 60.7689 196.154 58.8422C196.368 57.7676 196.576 56.6348 196.202 55.6323C195.824 54.7582 194.831 54.692 193.122 54.684C189.587 54.68 185.105 54.684 181.644 54.684C180.176 54.678 178.067 54.7542 177.619 54.2991C177.038 53.872 177.047 52.8295 177.036 50.8867C177.043 45.0645 177.031 36.5517 177.036 31.756C177.033 30.0538 177.036 29.0434 176.866 28.5602C176.665 27.9868 176.154 28.0509 175.647 28.0269C168.537 28.077 131.371 27.9286 124.471 28.075C124.151 28.1331 123.924 28.2614 123.679 28.5682C123.323 29.0133 122.893 29.8874 122.174 31.2949C119.314 36.8985 113.587 48.2022 111.422 52.4305C110.96 53.2525 110.603 54.1567 109.796 54.4715C104.674 55.0148 92.4228 54.5096 86.8807 54.684C84.618 54.6299 84.4465 55.2594 85.0345 58.0322C85.3635 59.584 85.9375 61.7453 86.6532 63.8905C87.3059 65.8653 88.0864 67.8121 88.7444 69.3218C89.4951 71.1142 90.0061 72.0825 89.4794 73.4379L89.4636 73.4739Z" fill="url(#paint0_linear_403_2431)"/>
<path d="M157.21 8.65356H171.801V18.7803H150.654L157.21 8.65356Z" fill="url(#paint1_linear_403_2431)"/>
<path d="M145.102 39.0618C145.102 45.0284 141.386 42.2256 135.673 53.1382C131.291 41.572 126.244 45.0284 126.244 39.0618C126.244 33.0952 132.15 29.4584 135.673 35.8981C139.482 29.8954 145.102 33.0972 145.102 39.0618Z" fill="url(#paint2_linear_403_2431)"/>
<path d="M140.164 85.5555C135.465 85.5555 130.564 82.9592 125.819 80.445C121.639 78.2296 117.316 75.94 113.876 75.94C113.843 75.94 113.81 75.94 113.776 75.94C106.969 76.0282 102.288 78.4461 97.7609 80.7839C89.6394 84.9781 81.9466 88.9498 65.6738 79.9398C64.2126 79.1298 63.6212 77.0969 64.3806 75.4528C65.0981 73.899 66.7606 73.2615 68.1395 74.0274C82.0078 81.7302 87.9699 78.6507 95.4089 74.8093C100.235 72.3172 105.707 69.4923 113.71 69.386C118.456 69.3359 123.42 71.9543 128.22 74.4965C132.403 76.7119 136.723 79.0015 140.164 79.0015C140.232 79.0015 140.302 79.0015 140.37 78.9995C143.979 78.9013 149.122 76.5255 154.097 74.2278C160.356 71.3368 166.824 68.3475 172.008 68.967C178.519 69.7449 182.434 72.0225 185.578 73.8529C191.164 77.1049 194.939 79.3022 212.344 70.0115C213.761 69.2537 215.448 69.9354 216.131 71.5473C216.827 73.1933 216.211 75.1762 214.764 75.946C195.807 86.0427 190.253 83.9235 182.987 79.6952C179.98 77.9449 176.872 76.1365 171.414 75.4849C167.655 75.0378 161.847 77.7144 156.235 80.3067C150.537 82.9391 145.155 85.4232 140.507 85.5515C140.393 85.5535 140.278 85.5555 140.164 85.5555Z" fill="url(#paint3_linear_403_2431)"/>
<path d="M170.758 39.2645C170.758 45.231 167.043 42.4282 161.329 53.3409C156.947 41.7746 151.9 45.231 151.9 39.2645C151.9 33.2979 157.806 29.661 161.329 36.1007C165.139 30.0981 170.758 33.2999 170.758 39.2645Z" fill="url(#paint4_linear_403_2431)"/>
<path d="M70.6899 105.16C64.4499 110.152 60.0659 120.36 60.7379 127.016C60.8339 127.688 61.3779 130.568 62.4339 130.472C62.9779 130.408 63.8419 129.576 64.1619 129.192C66.3059 126.728 67.8739 123.912 68.7699 120.872C69.1539 119.592 69.8899 117.512 71.5539 117.352C72.4819 117.256 73.2179 117.672 73.3139 118.504C73.6979 122.216 67.3619 132.84 62.7539 133.32C59.3619 133.672 57.7619 130.056 57.5059 127.528C57.4099 126.856 57.4099 126.12 57.4739 125.416C57.9859 117.064 61.0579 110.056 66.8179 103.464C68.2899 101.768 70.7859 99.656 73.2819 99.4C76.1939 99.112 78.2419 100.904 78.5299 103.464C78.7859 105.928 76.6419 112.36 73.4739 112.712C72.6739 112.776 71.9379 112.424 71.8419 111.656C71.7459 110.792 73.6339 107.016 73.4099 104.776C73.2499 102.728 71.8099 104.264 70.6899 105.16ZM81.1596 113.768C81.7676 112.936 82.3116 111.752 83.4956 111.592C85.4156 111.4 86.3116 114.056 86.5036 115.368C86.5676 115.976 86.0556 116.424 85.4476 116.52C84.5196 116.616 84.0076 115.944 83.4956 115.304C83.1436 114.6 82.3756 114.792 81.6396 115.752C79.0156 119.112 79.1116 123.432 77.5436 128.04C77.3516 128.648 76.6796 129.096 75.9436 129.16C74.8876 129.288 74.0236 128.648 73.8956 127.688C73.7036 126.312 77.4476 113.768 78.1196 112.584C78.3436 112.136 78.7916 111.816 79.3996 111.752C80.7756 111.592 81.0316 112.776 81.1596 113.768ZM90.6339 121.672C90.6019 121.832 90.5379 122.024 90.5379 122.184C90.5379 122.76 90.6019 123.368 91.3059 123.368C94.6979 123.368 98.7939 119.016 99.4019 119.016C100.01 119.016 100.714 119.592 100.714 120.232C100.714 123.144 93.8019 127.08 90.9859 127.08C88.3939 127.08 86.5059 125.224 86.5059 122.632C86.5059 117.384 91.6579 109.928 97.3219 109.928C99.2739 109.928 100.49 111.144 100.49 113.096C100.49 117.032 94.5699 122.216 90.6339 121.672ZM94.6979 116.968C96.1699 115.976 97.5139 114.632 97.5139 113.416C97.5139 112.52 96.5219 113.128 96.1059 113.352C95.0179 113.928 94.1219 114.728 93.3859 115.688C91.5939 118.088 91.6579 118.952 94.6979 116.968ZM105.241 123.72C106.841 122.152 109.657 118.664 110.905 116.776C111.129 116.456 111.321 116.2 111.641 115.976C111.897 115.784 112.185 115.688 112.505 115.688C113.241 115.688 113.913 116.264 113.913 117C113.913 117.384 113.657 118.344 113.209 119.464C110.169 126.952 115.161 126.824 119.065 121C121.337 117.608 121.305 113.096 121.305 111.368C121.305 110.408 120.665 110.056 120.665 109.288C120.665 108.264 121.561 107.688 122.489 107.688C124.921 107.688 125.433 110.472 125.433 112.36C125.433 118.28 121.881 123.72 117.241 127.144C116.153 127.944 114.553 128.712 113.177 128.712C109.785 128.712 109.209 125.704 108.857 123.08C107.417 124.36 104.729 128.104 102.841 128.104C101.657 128.104 100.857 127.08 100.857 125.928C100.857 123.272 106.009 110.504 108.889 110.504C109.561 110.504 110.265 111.112 110.265 111.816C110.265 112.072 105.721 122.312 105.241 123.72ZM149.414 119.432L149.702 119.496C153.606 113.736 157.606 108.2 162.15 102.92C163.43 101.448 164.55 99.592 165.926 98.248C166.438 97.736 167.11 97.416 167.846 97.416C169.062 97.416 170.214 98.376 170.214 99.624C170.214 100.84 167.334 105.928 166.662 107.496C164.166 113.256 161.254 122.312 161.254 128.648C161.254 129.672 162.182 130.056 162.182 130.952C162.182 131.976 161.158 132.872 160.166 132.872C156.934 132.872 156.646 127.4 156.646 125.032C156.646 121.224 157.638 117.64 158.598 113.96C156.518 116.232 151.846 124.712 149.03 124.712C145.19 124.712 145.286 114.888 145.094 112.2L144.806 112.456C143.366 116.072 138.598 128.808 138.598 132.136C138.598 132.84 139.334 132.936 139.334 133.576C139.334 134.376 137.606 135.528 136.838 135.528C135.27 135.528 134.982 133.832 134.982 132.616C134.982 126.472 142.246 105.48 145.382 100.68C145.798 100.04 146.47 99.56 147.27 99.56C148.774 99.56 149.51 100.744 149.51 102.12C149.51 106.632 149.158 111.176 149.158 115.688C149.158 116.936 149.318 118.184 149.414 119.432ZM180.356 112.072C181.06 111.368 181.7 110.28 182.82 110.28C183.556 110.28 184.164 110.856 184.164 111.592C184.164 112.488 179.268 119.656 179.268 123.848C179.268 124.904 180.132 125.064 180.132 125.96C180.132 126.664 179.492 127.176 178.82 127.176C176.324 127.176 176.26 123.848 176.1 122.152C174.308 123.944 171.108 127.592 168.484 127.592C166.212 127.592 165.156 125.672 165.156 123.624C165.156 118.28 171.012 110.28 176.676 110.28C178.148 110.28 179.428 110.984 180.356 112.072ZM176.452 114.216C173.764 114.216 171.172 117.704 169.86 120.84C168.292 124.456 169.188 124.456 171.94 122.024C174.404 119.848 177.316 116.84 177.316 115.112C177.316 114.248 177.188 114.216 176.452 114.216ZM188.66 128.744L188.628 129.416C189.3 129.672 190.228 129.992 190.196 130.824C190.164 131.72 188.788 132.52 187.86 132.52C184.916 132.52 184.948 128.456 185.012 126.6C185.076 124.552 185.46 122.536 185.716 120.456C185.204 120.584 184.34 120.872 183.828 120.872C183.06 120.872 182.356 120.328 182.388 119.624C182.452 118.28 185.108 117.704 186.292 117.48C187.188 115.272 191.092 104.104 194.388 104.104C195.38 104.104 196.244 104.648 196.212 105.576C196.212 105.608 192.084 115.016 191.604 116.36L191.636 116.552C192.276 116.584 192.948 116.52 193.62 116.52C194.356 116.52 194.932 116.776 194.9 117.512C194.868 118.664 191.668 118.952 190.676 119.144C189.652 122.28 188.756 125.48 188.66 128.744ZM195.921 122.696C195.921 116.488 202.097 106.76 209.137 106.76C211.441 106.76 213.425 108.2 213.425 110.632C213.425 112.552 211.217 117.192 208.945 117.192C208.433 117.192 207.953 116.744 207.953 116.2C207.953 115.528 209.873 113.448 209.873 110.952C209.873 110.504 209.425 110.472 209.105 110.472C204.529 110.472 199.665 118.984 199.665 122.888C199.665 124.104 199.857 126.088 201.489 126.088C205.169 126.088 208.497 120.392 210.001 120.392C210.833 120.392 211.441 121.128 211.441 121.896C211.441 124.872 204.401 129.256 201.489 129.256C197.745 129.256 195.921 125.992 195.921 122.696ZM218.011 116.616C219.323 115.464 220.859 114.024 222.715 114.024C224.699 114.024 225.531 115.56 225.531 117.352C225.531 120.008 223.867 122.76 223.867 125.352C223.867 126.184 224.763 126.248 224.763 127.016C224.763 127.784 223.835 128.328 223.163 128.328C221.307 128.328 220.827 125.928 220.827 124.52C220.827 123.016 221.243 121.48 221.659 119.944C222.427 117 222.075 116.328 219.771 119.016C217.755 121.384 216.347 125 215.547 127.368C215.355 127.976 214.971 128.552 214.235 128.552C212.475 128.552 212.539 125.48 212.539 124.168L212.571 123.336C213.051 118.184 214.587 113.288 217.083 108.776C217.819 107.432 220.187 104.2 221.819 104.2C222.619 104.2 223.419 104.84 223.419 105.672C223.419 106.12 223.163 106.504 222.907 106.824C220.539 109.8 219.131 113 218.011 116.616Z" fill="#D30579"/>
<defs>
<linearGradient id="paint0_linear_403_2431" x1="63.5901" y1="53.4162" x2="189.093" y2="55.3074" gradientUnits="userSpaceOnUse">
<stop offset="0.432692" stop-color="#D30579"/>
<stop offset="1" stop-color="#FAB558"/>
</linearGradient>
<linearGradient id="paint1_linear_403_2431" x1="148.394" y1="14.7229" x2="169.387" y2="15.0048" gradientUnits="userSpaceOnUse">
<stop offset="0.432692" stop-color="#D30579"/>
<stop offset="1" stop-color="#FAB558"/>
</linearGradient>
<linearGradient id="paint2_linear_403_2431" x1="124.228" y1="44.8676" x2="142.952" y2="44.9776" gradientUnits="userSpaceOnUse">
<stop offset="0.432692" stop-color="#D30579"/>
<stop offset="1" stop-color="#FAB558"/>
</linearGradient>
<linearGradient id="paint3_linear_403_2431" x1="47.7597" y1="78.8762" x2="198.534" y2="87.736" gradientUnits="userSpaceOnUse">
<stop offset="0.432692" stop-color="#D30579"/>
<stop offset="1" stop-color="#FAB558"/>
</linearGradient>
<linearGradient id="paint4_linear_403_2431" x1="149.884" y1="45.0702" x2="168.608" y2="45.1802" gradientUnits="userSpaceOnUse">
<stop offset="0.432692" stop-color="#D30579"/>
<stop offset="1" stop-color="#FAB558"/>
</linearGradient>
</defs>
</svg>
