<svg width="19" height="19" viewBox="0 0 19 19" fill="none" xmlns="http://www.w3.org/2000/svg">
<path fill-rule="evenodd" clip-rule="evenodd" d="M17.8775 9.54861C17.8775 8.64001 17.141 7.90345 16.2324 7.90345L11.2969 7.90345L11.2969 2.96797C11.2969 2.05937 10.5603 1.32281 9.65173 1.32281C8.74314 1.32281 8.00657 2.05937 8.00657 2.96797L8.00657 7.90345L3.07109 7.90345C2.16249 7.90345 1.42593 8.64001 1.42593 9.54861C1.42593 10.4572 2.16249 11.1938 3.07109 11.1938L8.00657 11.1938L8.00657 16.1293C8.00657 17.0379 8.74314 17.7744 9.65173 17.7744C10.5603 17.7744 11.2969 17.0379 11.2969 16.1293L11.2969 11.1938L16.2324 11.1938C17.141 11.1938 17.8775 10.4572 17.8775 9.54861Z" fill="#FEFEFE" stroke="#FEFEFE" stroke-linecap="round"/>
</svg>
