<svg width="24" height="24" viewBox="0 0 24 24" fill="none" xmlns="http://www.w3.org/2000/svg">
<path d="M9 11H15M12 14V8M4 11.252C4 18.939 10.918 21.639 11.887 21.98C11.9623 22.0067 12.0377 22.0067 12.113 21.98C13.084 21.65 20 19.018 20 11.253V4.304C20.0002 4.21463 19.9705 4.12777 19.9156 4.05726C19.8607 3.98676 19.7837 3.93667 19.697 3.915L12.097 2.012C12.0333 1.99608 11.9667 1.99608 11.903 2.012L4.303 3.915C4.2163 3.93667 4.13935 3.98676 4.08443 4.05726C4.02952 4.12777 3.99979 4.21463 4 4.304V11.252Z" stroke="#4A4A4A" stroke-miterlimit="10" stroke-linecap="round" stroke-linejoin="round"/>
</svg>
