<svg width="24" height="25" viewBox="0 0 24 25" fill="none" xmlns="http://www.w3.org/2000/svg">
<path d="M17 17.5C15.6193 17.5 14.5 16.3807 14.5 15C14.5 13.6193 15.6193 12.5 17 12.5C18.3807 12.5 19.5 13.6193 19.5 15C19.5 16.3807 18.3807 17.5 17 17.5ZM17 17.5C19.4853 17.5 21.5 19.5147 21.5 22M17 17.5C14.5147 17.5 12.5 19.5147 12.5 22" stroke="#D30579" stroke-width="1.5" stroke-linecap="round" stroke-linejoin="round"/>
<path d="M7 8C5.61929 8 4.5 6.88071 4.5 5.5C4.5 4.11929 5.61929 3 7 3C8.38071 3 9.5 4.11929 9.5 5.5C9.5 6.88071 8.38071 8 7 8ZM7 8C9.48528 8 11.5 10.0147 11.5 12.5M7 8C4.51472 8 2.5 10.0147 2.5 12.5" stroke="#D30579" stroke-width="1.5" stroke-linecap="round" stroke-linejoin="round"/>
<path d="M3.5 16C3.5 18.7643 5.73571 21 8.5 21L8 19" stroke="#D30579" stroke-width="1.5" stroke-linecap="round" stroke-linejoin="round"/>
<path d="M18.5 9C18.5 6.23571 16.2643 4 13.5 4L14 6" stroke="#D30579" stroke-width="1.5" stroke-linecap="round" stroke-linejoin="round"/>
</svg>
